<svg id="line" xmlns="http://www.w3.org/2000/svg" viewBox="0 0 64 64"><title>1</title><path d="M59,32.2002a.99974.99974,0,0,0-1,1v21.71a1.001,1.001,0,0,1-1,1H42.66992a1,1,0,0,0,0,2H57a3.00328,3.00328,0,0,0,3-3v-21.71A.99974.99974,0,0,0,59,32.2002Z" id="id_101" style="fill: rgb(21, 147, 159);"></path><path d="M57,6.08984H34.55957a1.00009,1.00009,0,0,0,0,2H57a1.001,1.001,0,0,1,1,1v4.03907H6V9.08984a1.001,1.001,0,0,1,1-1H30.55957a1.00011,1.00011,0,0,0,0-2H7a3.00328,3.00328,0,0,0-3,3V54.91016a3.00328,3.00328,0,0,0,3,3H38.66992a1,1,0,0,0,0-2H7a1.001,1.001,0,0,1-1-1V15.12891H58V29.2002a1,1,0,0,0,2,0V9.08984A3.00328,3.00328,0,0,0,57,6.08984Z" id="id_102" style="fill: rgb(21, 147, 159);"></path><path d="M22.00977,45.02a13.56508,13.56508,0,0,0,13.5498-13.54981c-.74392-17.97544-26.35764-17.97213-27.09963.00011a13.46791,13.46791,0,0,0,2.16115,7.34316.99953.99953,0,1,0,1.67774-1.08692C7.32191,30.2399,13.00346,19.8,22.00994,19.92A11.56333,11.56333,0,0,1,33.55957,31.47021c.08042,9.5883-11.39573,15.08918-18.79109,8.99251a.99994.99994,0,0,0-1.25774,1.55486A13.368,13.368,0,0,0,22.00977,45.02Z" id="id_103" style="fill: rgb(21, 147, 159);"></path><path d="M22.01172,22.33887c-8.46321.00128-12.31412,10.65229-5.93119,16.05759,5.60939,4.95341,14.78328.998,15.04019-6.51722A9.126,9.126,0,0,0,22.01172,22.33887Zm7.09338,8.40948-6.09338-.24054V24.41736A7.13837,7.13837,0,0,1,29.1051,30.74835Zm-14.22326.72089a7.13513,7.13513,0,0,1,6.12988-7.05188v6.6839l-4.32984,5.08789A7.09336,7.09336,0,0,1,14.88184,31.46924Zm7.12988,7.13037A7.079,7.079,0,0,1,18.20367,37.487l4.2547-4.99957,6.56238.25879A7.13709,7.13709,0,0,1,22.01172,38.59961Z" id="id_104" style="fill: rgb(21, 147, 159);"></path><path d="M41.668,53.06934a.99974.99974,0,0,0,1,1H46.7373a.99974.99974,0,0,0,1-1V41.69287a.99974.99974,0,0,0-1-1H42.668a.99974.99974,0,0,0-1,1Zm2-10.37647H45.7373v9.37647H43.668Z" id="id_105" style="fill: rgb(21, 147, 159);"></path><path d="M34.55957,54.06934h4.06934a.99974.99974,0,0,0,1-1v-6.3584a.99974.99974,0,0,0-1-1H34.55957a.99974.99974,0,0,0-1,1v6.3584A.99974.99974,0,0,0,34.55957,54.06934Zm1-6.3584h2.06934v4.3584H35.55957Z" id="id_106" style="fill: rgb(21, 147, 159);"></path><path d="M49.77734,41.69287V53.06934a.99974.99974,0,0,0,1,1h4.06934a.99974.99974,0,0,0,1-1V41.69287a.99974.99974,0,0,0-1-1H50.77734A.99974.99974,0,0,0,49.77734,41.69287Zm2,1h2.06934v9.37647H51.77734Z" id="id_107" style="fill: rgb(21, 147, 159);"></path><path d="M42.74219,21.27734H52.81152a1.0001,1.0001,0,0,0,0-2H42.74219A1.0001,1.0001,0,0,0,42.74219,21.27734Z" id="id_108" style="fill: rgb(32, 172, 191);"></path><path d="M42.74219,25.73291H52.81152a1.0001,1.0001,0,0,0,0-2H42.74219A1.0001,1.0001,0,0,0,42.74219,25.73291Z" id="id_109" style="fill: rgb(21, 147, 159);"></path><path d="M42.74219,30.188H52.81152a1.0001,1.0001,0,0,0,0-2H42.74219A1.0001,1.0001,0,0,0,42.74219,30.188Z" id="id_110" style="fill: rgb(21, 147, 159);"></path><path d="M8.68811,10.60889a1.0001,1.0001,0,0,0,2,0A1.0001,1.0001,0,0,0,8.68811,10.60889Z" id="id_111" style="fill: rgb(21, 147, 159);"></path><path d="M16.2439,10.60889a1.0001,1.0001,0,0,0,2,0A1.0001,1.0001,0,0,0,16.2439,10.60889Z" id="id_112" style="fill: rgb(21, 147, 159);"></path><path d="M23.79968,10.60889a1.0001,1.0001,0,0,0,2,0A1.0001,1.0001,0,0,0,23.79968,10.60889Z" id="id_113" style="fill: rgb(21, 147, 159);"></path></svg>