<svg xmlns="http://www.w3.org/2000/svg" xmlns:xlink="http://www.w3.org/1999/xlink" version="1.1" id="Layer_1" x="0px" y="0px" viewBox="0 0 40 40" xml:space="preserve" width="40" height="40"><path d="M5 37.5A2.503 2.503 0 0 1 2.5 35V5c0-1.378 1.122-2.5 2.5-2.5h30c1.378 0 2.5 1.122 2.5 2.5v30c0 1.378-1.122 2.5-2.5 2.5H5z" fill="#ffffff" id="id_101"></path><path d="M35 3c1.103 0 2 .897 2 2v30c0 1.103-.897 2-2 2H5c-1.103 0-2-.897-2-2V5c0-1.103.897-2 2-2h30m0-1H5a3 3 0 0 0-3 3v30a3 3 0 0 0 3 3h30a3 3 0 0 0 3-3V5a3 3 0 0 0-3-3z" fill="#15939f" id="id_102"></path><path d="M3 20.5h6.5l2-4 2 10 4-18 3 24.007 5-18.007 3 11 2-5H37" fill="none" stroke="#15939f" stroke-linejoin="round" stroke-miterlimit="10" id="id_103"></path><metadata><rdf:rdf xmlns:rdf="http://www.w3.org/1999/02/22-rdf-syntax-ns#" xmlns:rdfs="http://www.w3.org/2000/01/rdf-schema#" xmlns:dc="http://purl.org/dc/elements/1.1/"><rdf:description about="https://iconscout.com/legal#licenses" dc:title="heart,monitor" dc:description="heart,monitor" dc:publisher="Iconscout" dc:date="2017-10-29" dc:format="image/svg+xml" dc:language="en"><dc:creator><rdf:bag><rdf:li>Icons8</rdf:li></rdf:bag></dc:creator></rdf:description></rdf:rdf></metadata></svg>