<svg xmlns="http://www.w3.org/2000/svg" xml:space="preserve" width="512px" height="512px" version="1.1" style="shape-rendering:geometricPrecision; text-rendering:geometricPrecision; image-rendering:optimizeQuality; fill-rule:evenodd; clip-rule:evenodd" viewBox="0 0 512 512" xmlns:xlink="http://www.w3.org/1999/xlink">
 <defs>
  <style type="text/css">
   
    .fil0 {fill:url(#id0)}
   
  </style>
  <linearGradient id="id0" gradientUnits="userSpaceOnUse" x1="0.244489" y1="255.996" x2="511.756" y2="255.996">
   <stop offset="0" style="stop-opacity: 1; stop-color: rgb(21, 147, 159);" id="id_102"></stop>
   <stop offset="1" style="stop-opacity: 1; stop-color: rgb(21, 147, 159);" id="id_103"></stop>
  </linearGradient>
 </defs>
 <g id="Layer_x0020_1">
  <metadata id="CorelCorpID_0Corel-Layer"></metadata>
  <path class="fil0" d="M304 162l-22 0 0 48c0,31 -16,58 -40,73l4 17c11,0 26,0 37,0 60,3 107,44 107,94l0 87c0,4 -3,7 -7,7l-376 0c-4,0 -7,-3 -7,-7l0 -87c0,-53 53,-94 113,-94l31 0 5 -17c-25,-15 -41,-42 -41,-73l0 -48 -22 0c-3,0 -6,-3 -6,-7 0,-34 -4,-35 13,-35 3,-54 49,-96 102,-96 53,0 99,42 103,96 16,0 13,1 13,35 0,4 -3,7 -7,7zm122 163l-27 0c-3,0 -6,-2 -7,-5l-5 -32c-8,-3 -15,-7 -22,-12l-30 11c-3,1 -6,0 -8,-3l-13 -23c-2,-3 -1,-7 1,-9l25 -20c-2,-9 -2,-17 0,-26l-25 -20c-2,-2 -3,-6 -1,-8l13 -23c2,-3 5,-5 8,-3l30 11c7,-6 14,-10 22,-13l5 -31c1,-4 4,-6 7,-6l27 0c3,0 6,2 6,6l6 31c7,3 15,7 21,13l30 -11c3,-2 7,0 9,3l13 23c2,2 1,6 -2,8l-24 20c1,9 1,17 0,26l24 20c3,2 4,6 2,9l-13 23c-2,3 -6,4 -9,3l-29 -11c-7,5 -15,9 -22,12l-6 32c0,3 -3,5 -6,5zm-21 -13l15 0 5 -30c1,-8 13,-5 28,-19 2,-2 5,-3 7,-2l29 11 7 -13c-35,-29 -24,-15 -24,-40 0,-25 -11,-11 24,-40l-7 -13 -29 11c-7,3 -10,-9 -30,-15 -3,-1 -5,-3 -5,-6l-5 -29 -15 0 -5 29c-2,8 -13,5 -29,19 -2,2 -4,3 -7,2l-28 -11 -8 13c35,29 24,15 24,40 0,25 11,11 -24,40l8 13 28 -11c8,-2 11,10 31,16 3,0 4,2 5,5l5 30zm7 -56c-20,0 -36,-17 -36,-37 0,-20 16,-36 36,-36 20,0 37,16 37,36 0,20 -17,37 -37,37zm0 -60c-12,0 -23,10 -23,23 0,13 11,23 23,23 13,0 23,-10 23,-23 0,-13 -10,-23 -23,-23zm-339 232l-59 0 0 46 59 0 0 -46zm-59 -13l59 0c0,-6 -1,-16 7,-16 9,0 7,12 7,22l0 53 78 0 9 -79 -6 -9 -10 13c-3,4 -9,3 -12,-1l-42 -84c-51,4 -90,38 -90,80l0 21zm362 13l-59 0 0 46 59 0 0 -46zm-59 -13l59 0 0 -21c0,-42 -39,-76 -89,-80l-43 84c-2,4 -8,5 -11,1l-11 -13 -6 10 9 78 79 0 0 -68c0,-9 13,-9 13,0l0 9zm-198 -101l35 69 31 -39 -38 -30 -28 0zm38 -10l38 30 38 -30 -4 -14c-21,9 -47,9 -68,0l-4 14zm38 50l-18 21 18 27 18 -27 -18 -21zm48 -40l-38 30 31 39 35 -69 -28 0zm-32 160l-7 -61c-2,4 -4,8 -8,8l0 0 0 0 -1 0 0 0 0 0 -1 0 0 0 0 0 -1 0 0 0 -1 0 0 0 0 -1 -1 0 0 0 0 0 0 0 -1 -1 -1 -1 -3 -5 -7 61 32 0zm19 -199c0,-1 1,-1 1,-1 23,-13 38,-37 38,-64l0 -48 -148 0 0 48c0,56 61,90 109,65zm-75 -155l0 -73c-27,14 -46,41 -49,73l49 0zm14 -78l0 78 52 0 0 -78c-16,-5 -35,-5 -52,0zm66 5l0 73 49 0c-2,-32 -22,-59 -49,-73zm-142 101l204 0 0 -14 -204 0 0 14z" id="id_101"></path>
 </g>
</svg>